<?xml version="1.0" standalone="no"?>
<!DOCTYPE svg PUBLIC "-//W3C//DTD SVG 20010904//EN"
 "http://www.w3.org/TR/2001/REC-SVG-20010904/DTD/svg10.dtd">
<svg version="1.0" xmlns="http://www.w3.org/2000/svg"
 width="512.000000pt" height="512.000000pt" viewBox="0 0 512.000000 512.000000"
 preserveAspectRatio="xMidYMid meet">
<metadata>
Created by potrace 1.13, written by Peter Selinger 2001-2015
</metadata>
<g transform="translate(0.000000,512.000000) scale(0.100000,-0.100000)"
fill="#000000" stroke="none">
<path d="M645 4704 c-66 -36 -115 -109 -115 -171 0 -89 -102 17 2014 -2101
1095 -1096 2005 -2002 2021 -2012 67 -41 165 -34 225 17 65 54 88 151 55 231
-11 26 -240 261 -755 777 l-740 740 -2 1180 c-3 1111 -4 1182 -21 1220 -52
114 -160 149 -278 89 -55 -27 -130 -99 -829 -791 -152 -150 -280 -273 -285
-273 -6 0 -244 234 -530 521 -286 286 -540 534 -564 551 -54 38 -148 49 -196
22z"/>
<path d="M930 3328 c-51 -14 -100 -55 -121 -102 -17 -39 -19 -77 -19 -676 0
-599 2 -637 19 -676 22 -49 70 -88 126 -103 25 -7 167 -11 385 -11 l346 0 661
-649 c382 -375 681 -661 708 -677 121 -71 230 -37 286 88 22 51 23 65 27 352
l4 299 -1083 1083 -1084 1084 -110 -1 c-60 0 -126 -5 -145 -11z"/>
</g>
</svg>
