<?xml version="1.0" standalone="no"?>
<!DOCTYPE svg PUBLIC "-//W3C//DTD SVG 20010904//EN"
 "http://www.w3.org/TR/2001/REC-SVG-20010904/DTD/svg10.dtd">
<svg version="1.0" xmlns="http://www.w3.org/2000/svg"
 width="1024.000000pt" height="234.000000pt" viewBox="0 0 1024.000000 234.000000"
 preserveAspectRatio="xMidYMid meet">
<metadata>
Created by potrace 1.13, written by Peter Selinger 2001-2015
</metadata>
<g transform="translate(0.000000,234.000000) scale(0.100000,-0.100000)"
fill="#000000" stroke="none">
<path d="M1037 2255 c-346 -65 -633 -285 -788 -600 -66 -136 -93 -230 -110
-381 -20 -191 15 -390 101 -570 87 -181 219 -335 371 -436 152 -101 287 -155
459 -183 408 -69 850 124 1079 471 139 210 199 425 188 667 -12 259 -115 506
-291 693 -157 168 -321 266 -543 325 -105 28 -354 35 -466 14z m418 -55 c202
-40 364 -128 521 -285 113 -112 176 -206 235 -348 134 -325 97 -678 -103 -984
-243 -373 -728 -549 -1163 -422 -105 31 -281 120 -360 182 -172 134 -313 352
-373 576 -22 83 -25 117 -26 251 0 139 3 165 27 255 155 562 675 887 1242 775z"/>
<path d="M1092 2099 c-215 -38 -447 -172 -579 -334 -95 -117 -178 -304 -202
-455 -44 -269 50 -567 242 -776 114 -123 251 -208 424 -261 81 -25 101 -27
258 -27 144 0 182 4 250 22 273 76 518 292 616 547 62 159 84 348 59 504 -28
169 -115 358 -219 473 -115 128 -308 244 -476 288 -92 24 -289 35 -373 19z
m197 -157 c22 -66 41 -123 41 -127 0 -5 -9 -18 -19 -29 -34 -37 -31 -84 8
-128 46 -53 61 -92 61 -158 0 -35 4 -60 10 -60 16 0 77 33 236 126 79 46 146
84 149 84 2 0 14 -18 25 -39 15 -30 17 -41 7 -49 -7 -5 -106 -62 -220 -126
-203 -115 -208 -119 -205 -148 2 -19 12 -35 29 -45 29 -18 10 -27 317 151 73
42 138 77 143 79 5 1 19 -15 31 -36 17 -28 19 -40 10 -45 -147 -85 -371 -218
-371 -222 -1 -3 21 -17 48 -32 57 -32 94 -76 112 -135 17 -60 38 -76 97 -75
l49 2 82 -96 c50 -59 79 -100 73 -106 -5 -5 -57 0 -132 14 l-122 22 -18 42
c-10 22 -26 44 -35 48 -9 3 -54 3 -99 0 -79 -6 -86 -5 -145 25 -34 17 -64 31
-66 31 -3 0 -5 -102 -5 -226 l0 -225 -42 3 -43 3 -3 252 -2 253 -24 15 c-19
13 -28 13 -50 4 l-26 -12 -2 -256 -3 -256 -47 -3 -48 -3 0 225 c0 125 -2 226
-5 226 -3 0 -31 -14 -63 -31 -55 -30 -60 -31 -148 -24 -99 7 -106 4 -135 -60
-13 -27 -21 -31 -124 -52 -131 -26 -148 -27 -143 -9 2 8 37 55 78 105 l75 91
47 -2 c38 -2 52 2 73 22 14 13 25 30 25 37 0 44 63 122 128 159 17 10 32 21
32 24 0 6 -50 37 -215 133 -185 107 -169 93 -148 129 31 53 11 61 312 -115
148 -86 156 -90 180 -76 20 11 26 23 26 48 0 33 -3 35 -190 142 -104 60 -202
116 -218 124 l-27 16 22 40 c12 21 24 39 28 39 3 0 62 -33 130 -73 69 -40 155
-90 193 -111 l67 -38 0 61 c0 73 18 120 65 172 42 47 45 85 11 126 l-25 29 40
110 c22 60 42 115 44 122 10 29 25 5 64 -106z"/>
<path d="M1202 1558 c-8 -8 -12 -45 -12 -100 0 -85 1 -89 25 -100 20 -9 31 -8
50 2 23 13 25 18 25 92 0 44 -5 88 -10 99 -12 22 -59 26 -78 7z"/>
<path d="M970 1079 c-73 -42 -90 -58 -90 -84 0 -28 22 -48 53 -47 12 0 52 17
89 38 60 35 67 42 68 70 0 23 -6 34 -25 42 -34 16 -32 16 -95 -19z"/>
<path d="M1402 1094 c-24 -17 -29 -56 -9 -72 6 -5 42 -26 80 -46 58 -30 71
-34 92 -24 30 13 40 40 26 67 -11 19 -134 91 -156 91 -6 0 -21 -7 -33 -16z"/>
<path d="M2530 2080 c0 -9 49 -162 287 -895 l58 -180 5 -375 5 -375 178 -3
177 -2 0 373 0 373 69 204 c38 113 121 355 185 538 64 184 116 338 116 343 0
6 -60 8 -151 7 l-152 -3 -107 -320 c-114 -341 -128 -380 -134 -374 -4 4 -150
472 -195 627 l-22 72 -159 0 c-102 0 -160 -4 -160 -10z"/>
<path d="M3834 2053 c-3 -21 -21 -117 -40 -214 -18 -96 -61 -330 -94 -520 -34
-189 -90 -503 -126 -698 -35 -195 -64 -358 -64 -363 0 -5 66 -7 148 -6 l147 3
35 210 35 210 185 0 185 0 35 -210 36 -210 162 -3 c114 -2 162 1 162 9 0 6
-34 212 -75 457 -40 246 -92 566 -115 712 -39 253 -95 590 -105 638 l-5 22
-250 0 -249 0 -7 -37z m301 -696 c30 -186 55 -345 55 -353 0 -11 -25 -14 -131
-14 -131 0 -131 0 -126 23 3 12 31 177 62 367 68 419 66 408 77 355 4 -22 33
-192 63 -378z"/>
<path d="M4800 1170 l0 -920 140 0 140 0 2 688 3 687 42 -200 c23 -110 74
-362 113 -560 39 -198 76 -377 81 -397 l10 -38 134 0 133 0 6 27 c3 16 35 197
71 403 95 551 130 732 138 724 4 -4 7 -306 7 -671 l0 -663 165 0 165 0 0 920
0 920 -259 0 -259 0 -6 -27 c-3 -16 -33 -183 -66 -373 -64 -372 -79 -452 -83
-456 -1 -1 -42 191 -91 427 l-90 429 -248 0 -248 0 0 -920z"/>
<path d="M6635 2078 c-2 -7 -23 -114 -45 -238 -23 -124 -59 -317 -80 -430 -21
-113 -55 -302 -75 -420 -21 -118 -59 -330 -85 -470 -26 -140 -45 -258 -43
-262 4 -8 293 -12 293 -4 0 1 16 95 35 207 19 112 35 207 35 212 0 4 83 7 184
7 l184 0 6 -27 c7 -35 66 -389 66 -397 0 -3 75 -6 166 -6 l166 0 -6 27 c-10
46 -231 1383 -266 1606 l-32 207 -250 0 c-190 0 -250 -3 -253 -12z m286 -669
c33 -206 63 -384 66 -396 5 -23 5 -23 -126 -23 -106 0 -131 3 -131 14 0 8 18
124 39 258 22 133 50 307 62 386 12 78 23 141 25 139 2 -2 31 -172 65 -378z"/>
<path d="M7592 1173 l3 -918 157 -3 158 -3 2 403 3 403 175 0 175 0 3 -403 2
-402 160 0 160 0 0 920 0 920 -160 0 -160 0 -2 -347 -3 -348 -177 -3 -178 -2
0 350 0 350 -160 0 -160 0 2 -917z"/>
<path d="M9075 2078 c-2 -7 -22 -114 -45 -238 -23 -124 -56 -306 -75 -405 -54
-286 -162 -878 -185 -1015 -12 -69 -24 -135 -27 -147 l-5 -23 151 0 c83 0 151
2 151 4 0 1 16 95 35 207 19 112 35 207 35 212 0 4 83 7 185 7 183 0 185 0
189 -22 3 -13 17 -99 31 -193 14 -93 28 -180 30 -192 5 -23 7 -23 171 -23
l166 0 -6 27 c-4 16 -71 420 -151 898 -80 479 -147 880 -150 893 l-5 22 -246
0 c-187 0 -246 -3 -249 -12z m284 -663 c34 -204 64 -382 67 -397 l6 -28 -136
0 -135 0 4 28 c49 290 125 754 125 763 0 43 15 -38 69 -366z"/>
</g>
</svg>
